<svg xmlns="http://www.w3.org/2000/svg" version="1.1" xmlns:xlink="http://www.w3.org/1999/xlink" xmlns:svgjs="http://svgjs.dev/svgjs" width="1500" height="1453" viewBox="0 0 1500 1453"><g transform="matrix(1,0,0,1,-0.4996826920823878,-2.343548387096803)"><svg viewBox="0 0 256 248" data-background-color="#0b2811" preserveAspectRatio="xMidYMid meet" height="1453" width="1500" xmlns="http://www.w3.org/2000/svg" xmlns:xlink="http://www.w3.org/1999/xlink"><g id="tight-bounds" transform="matrix(1,0,0,1,0.08527917944871888,0.4000000000000057)"><svg viewBox="0 0 255.8294416411026 247.2" height="247.2" width="255.8294416411026"><g><svg viewBox="0 0 395.52 382.17862405830095" height="247.2" width="255.8294416411026"><g transform="matrix(1,0,0,1,0,297.17575560251566)"><svg viewBox="0 0 395.52 85.0028684557853" height="85.0028684557853" width="395.52"><g id="textblocktransform"><svg viewBox="0 0 395.52 85.0028684557853" height="85.0028684557853" width="395.52" id="textblock"><g><svg viewBox="0 0 395.52 85.0028684557853" height="85.0028684557853" width="395.52"><g transform="matrix(1,0,0,1,0,0)"><svg width="395.52" viewBox="1.1 -37.85 227.28 48.85" height="85.0028684557853" data-palette-color="#e0f8e3"><path d="M3.85 0L1.1 0 14.9-37.25 17.3-37.25 31.1 0 28.35 0 24.75-9.85 7.45-9.85 3.85 0ZM16.7-35.2L8.25-12.1 23.95-12.1 15.5-35.2 16.7-35.2ZM47.75 11L47.75 11Q45.2 11 43.02 10.18 40.85 9.35 39.2 7.93 37.55 6.5 36.6 4.75L36.6 4.75 38.5 3.65Q39.95 6.1 42.35 7.5 44.75 8.9 47.75 8.9L47.75 8.9Q50.25 8.9 52.52 7.88 54.8 6.85 56.27 4.67 57.75 2.5 57.75-0.9L57.75-0.9 57.75-8.45 58.25-7.6Q56.85-4.35 53.92-2.38 51-0.4 47.2-0.4L47.2-0.4Q43.55-0.4 40.67-2.2 37.8-4 36.15-7 34.5-10 34.5-13.65L34.5-13.65Q34.5-17.3 36.15-20.3 37.8-23.3 40.67-25.1 43.55-26.9 47.2-26.9L47.2-26.9Q51-26.9 53.92-24.93 56.85-22.95 58.25-19.7L58.25-19.7 57.75-18.85 57.75-26.3 60-26.3 60-0.9Q60 2.55 58.42 5.25 56.85 7.95 54.1 9.47 51.35 11 47.75 11ZM47.2-2.65L47.2-2.65Q50.25-2.65 52.57-4.13 54.9-5.6 56.25-8.1 57.6-10.6 57.6-13.65L57.6-13.65Q57.6-16.75 56.25-19.23 54.9-21.7 52.57-23.18 50.25-24.65 47.2-24.65L47.2-24.65Q44.15-24.65 41.82-23.18 39.5-21.7 38.2-19.2 36.9-16.7 36.9-13.65L36.9-13.65Q36.9-10.6 38.2-8.1 39.5-5.6 41.82-4.13 44.15-2.65 47.2-2.65ZM71.05 0L68.8 0 68.8-26.3 71.05-26.3 71.05-20.75 70.45-21Q71.2-23.65 73.45-25.13 75.7-26.6 78.65-26.6L78.65-26.6 80.3-26.6 80.3-24.35 78.6-24.35Q75-24.35 73.02-22 71.05-19.65 71.05-16L71.05-16 71.05 0ZM97.94 0.6L97.94 0.6Q94.19 0.6 91.19-1.2 88.19-3 86.44-6.13 84.69-9.25 84.69-13.15L84.69-13.15Q84.69-17.1 86.44-20.2 88.19-23.3 91.19-25.1 94.19-26.9 97.94-26.9L97.94-26.9Q101.74-26.9 104.72-25.1 107.69-23.3 109.44-20.2 111.19-17.1 111.19-13.15L111.19-13.15Q111.19-9.25 109.44-6.13 107.69-3 104.72-1.2 101.74 0.6 97.94 0.6ZM97.94-1.55L97.94-1.55Q100.99-1.55 103.44-3.08 105.89-4.6 107.34-7.25 108.79-9.9 108.79-13.15L108.79-13.15Q108.79-16.45 107.37-19.07 105.94-21.7 103.49-23.23 101.04-24.75 97.99-24.75L97.99-24.75Q94.89-24.75 92.42-23.23 89.94-21.7 88.52-19.07 87.09-16.45 87.09-13.15L87.09-13.15Q87.09-9.9 88.54-7.25 89.99-4.6 92.44-3.08 94.89-1.55 97.94-1.55ZM131.09 0.6L131.09 0.6Q127.54 0.6 124.82-0.73 122.09-2.05 120.32-4.2 118.54-6.35 117.79-8.7L117.79-8.7 120.04-9.4Q121.49-5.6 124.29-3.58 127.09-1.55 131.04-1.55L131.04-1.55Q133.69-1.55 135.74-2.48 137.79-3.4 138.99-5.1 140.19-6.8 140.19-9.2L140.19-9.2Q140.19-12.25 138.42-13.93 136.64-15.6 134.29-16.25L134.29-16.25 127.34-18.25Q123.04-19.5 121.19-22.15 119.34-24.8 119.34-28.15L119.34-28.15Q119.34-31.05 120.74-33.23 122.14-35.4 124.54-36.63 126.94-37.85 129.94-37.85L129.94-37.85Q133.04-37.85 135.52-36.63 137.99-35.4 139.72-33.43 141.44-31.45 142.14-29.15L142.14-29.15 139.89-28.45Q138.59-32 135.94-33.85 133.29-35.7 129.99-35.7L129.99-35.7Q127.69-35.7 125.82-34.77 123.94-33.85 122.84-32.15 121.74-30.45 121.74-28.1L121.74-28.1Q121.74-25.35 123.19-23.55 124.64-21.75 128.44-20.6L128.44-20.6 134.74-18.7Q138.39-17.6 140.49-15.13 142.59-12.65 142.59-9.15L142.59-9.15Q142.59-6.25 141.09-4.08 139.59-1.9 136.99-0.65 134.39 0.6 131.09 0.6ZM153.09 10L150.84 10 150.84-26.3 153.09-26.3 153.09-18.85 152.69-19.7Q154.14-22.95 157.11-24.93 160.09-26.9 163.89-26.9L163.89-26.9Q167.59-26.9 170.51-25.1 173.44-23.3 175.14-20.18 176.84-17.05 176.84-13.15L176.84-13.15Q176.84-9.25 175.14-6.15 173.44-3.05 170.51-1.23 167.59 0.6 163.89 0.6L163.89 0.6Q160.09 0.6 157.11-1.38 154.14-3.35 152.69-6.6L152.69-6.6 153.09-7.45 153.09 10ZM163.89-1.65L163.89-1.65Q166.94-1.65 169.31-3.15 171.69-4.65 173.06-7.25 174.44-9.85 174.44-13.15L174.44-13.15Q174.44-16.45 173.06-19.05 171.69-21.65 169.31-23.15 166.94-24.65 163.89-24.65L163.89-24.65Q160.89-24.65 158.46-23.15 156.04-21.65 154.64-19.07 153.24-16.5 153.24-13.2L153.24-13.2Q153.24-9.85 154.64-7.25 156.04-4.65 158.46-3.15 160.89-1.65 163.89-1.65ZM196.69 0.6L196.69 0.6Q192.94 0.6 189.94-1.2 186.94-3 185.19-6.13 183.44-9.25 183.44-13.15L183.44-13.15Q183.44-17.1 185.19-20.2 186.94-23.3 189.94-25.1 192.94-26.9 196.69-26.9L196.69-26.9Q200.48-26.9 203.46-25.1 206.44-23.3 208.19-20.2 209.94-17.1 209.94-13.15L209.94-13.15Q209.94-9.25 208.19-6.13 206.44-3 203.46-1.2 200.48 0.6 196.69 0.6ZM196.69-1.55L196.69-1.55Q199.73-1.55 202.19-3.08 204.63-4.6 206.08-7.25 207.53-9.9 207.53-13.15L207.53-13.15Q207.53-16.45 206.11-19.07 204.69-21.7 202.23-23.23 199.78-24.75 196.73-24.75L196.73-24.75Q193.63-24.75 191.16-23.23 188.69-21.7 187.26-19.07 185.83-16.45 185.83-13.15L185.83-13.15Q185.83-9.9 187.28-7.25 188.73-4.6 191.19-3.08 193.63-1.55 196.69-1.55ZM226.23 0.3L226.23 0.3Q223.18 0.3 221.53-1.35 219.88-3 219.88-6.3L219.88-6.3 219.88-24.3 214.88-24.3 214.88-26.3 217.38-26.3Q218.68-26.3 219.28-26.95 219.88-27.6 219.88-29L219.88-29 219.88-32.5 222.13-32.5 222.13-26.3 227.83-26.3 227.83-24.3 222.13-24.3 222.13-6.3Q222.13-5.4 222.41-4.35 222.68-3.3 223.61-2.58 224.53-1.85 226.43-1.85L226.43-1.85Q226.83-1.85 227.43-1.9 228.03-1.95 228.38-2L228.38-2 228.38 0Q227.88 0.15 227.21 0.23 226.53 0.3 226.23 0.3Z" opacity="1" transform="matrix(1,0,0,1,0,0)" fill="#e0f8e3" class="wordmark-text-0" data-fill-palette-color="primary" id="text-0"></path></svg></g></svg></g></svg></g></svg></g><g transform="matrix(1,0,0,1,69.23925937231013,0)"><svg viewBox="0 0 257.0414812553797 257.0414812553797" height="257.0414812553797" width="257.0414812553797"><g><svg></svg></g><g id="icon-0"><svg viewBox="0 0 257.0414812553797 257.0414812553797" height="257.0414812553797" width="257.0414812553797"><g><path d="M0 128.521c0-70.98 57.541-128.521 128.521-128.521 70.98 0 128.521 57.541 128.52 128.521 0 70.98-57.541 128.521-128.52 128.52-70.98 0-128.521-57.541-128.521-128.52zM128.521 249.376c66.746 0 120.855-54.109 120.855-120.855 0-66.746-54.109-120.855-120.855-120.855-66.746 0-120.855 54.109-120.855 120.855 0 66.746 54.109 120.855 120.855 120.855z" data-fill-palette-color="accent" fill="#e0f8e3" stroke="transparent"></path></g><g transform="matrix(1,0,0,1,89.96559643179964,53.77930643438573)"><svg viewBox="0 0 77.11028839178043 149.48286838660826" height="149.48286838660826" width="77.11028839178043"><g><svg xmlns="http://www.w3.org/2000/svg" data-name="Layer 1" viewBox="26.4 4.3 47.199999999999996 91.5" x="0" y="0" height="149.48286838660826" width="77.11028839178043" class="icon-dxe-0" data-fill-palette-color="accent" id="dxe-0"><g data-name="Group" fill="#e0f8e3" data-fill-palette-color="accent"><path data-name="Compound Path" d="M49.2 94.8A1 1 0 0 0 51.2 94.8V85.2H53.1A21.4 21.4 0 0 0 73.6 64.7V61.8A1 1 0 0 0 72.6 60.8H69.7A21.4 21.4 0 0 0 51.2 73.3V45.4H51.7A14 14 0 0 0 65.7 31.4V21.4A3 3 0 0 0 62.7 18.4H59.2V5.3A1 1 0 0 0 57.2 5.3V18.4H43.2V5.3A1 1 0 0 0 41.2 5.3V18.4H37.8A3 3 0 0 0 34.8 21.4V31.4A14 14 0 0 0 48.8 45.4H49.3V59.6A21.4 21.4 0 0 0 30.3 46.2H27.4A1 1 0 0 0 26.7 46.5 1 1 0 0 0 26.4 47.2V50A21.4 21.4 0 0 0 46.9 70.4H49.2ZM51.3 81.4A19.3 19.3 0 0 1 69.8 62.9H71.6V64.7A19.3 19.3 0 0 1 53.1 83.1H51.3ZM36.7 31.4V21.4A1 1 0 0 1 37.7 20.4H62.7A1 1 0 0 1 63.7 21.4V31.4A12 12 0 0 1 51.7 43.4H48.7A12 12 0 0 1 36.8 31.4ZM47 68.4A19.4 19.4 0 0 1 28.4 49.9V48.1H30.2A19.4 19.4 0 0 1 48.7 66.7V68.5Z" fill="#e0f8e3" data-fill-palette-color="accent"></path></g></svg></g></svg></g></svg></g></svg></g><g></g></svg></g><defs></defs></svg><rect width="255.8294416411026" height="247.2" fill="none" stroke="none" visibility="hidden"></rect></g></svg></g></svg>